<svg width="25" height="35" viewBox="0 0 25 35" fill="none" xmlns="http://www.w3.org/2000/svg">
<path d="M16.4015 25.0694V29.9583C16.4015 31.9834 14.6853 33.625 12.5681 33.625H11.8032C9.70482 33.625 7.99656 32.0115 7.97009 30.0045L7.90496 25.0694M16.4015 25.0694H7.90496M16.4015 25.0694C16.4015 23.5895 17.3707 22.2992 18.6307 21.4401C21.647 19.3838 23.625 15.9372 23.625 12.0324C23.625 5.73226 18.4763 0.625 12.125 0.625C5.77372 0.625 0.625 5.73226 0.625 12.0324C0.625 15.9577 2.62378 19.4202 5.66685 21.4726C6.90739 22.3093 7.87013 23.5615 7.90366 25.0129L7.90496 25.0694M12.125 5.20833C15.8299 5.20833 18.8333 8.18757 18.8333 11.8627" stroke="#1E1E1E" stroke-width="1.25" stroke-linecap="round"/>
</svg>
